<svg xmlns="http://www.w3.org/2000/svg" viewBox="0 0 16 16"><rect width="2" height="2" x="7" y="1"/><rect width="2" height="2" x="13" y="4"/><rect width="2" height="2" x="13" y="7"/><rect width="2" height="2" x="13" y="10"/><rect width="2" height="2" x="7" y="13"/><rect width="2" height="2" x="10" y="13"/><rect width="2" height="2" x="4" y="13"/><rect width="2" height="2" x="1" y="10"/><rect width="2" height="2" x="1" y="7"/><rect width="2" height="2" x="1" y="4"/><rect width="2" height="2" x="4" y="1"/><rect width="2" height="2" x="10" y="10"/><rect width="2" height="2" x="4" y="10"/><rect width="2" height="2" x="7" y="10"/><rect width="2" height="2" x="10" y="7"/><rect width="2" height="2" x="4" y="7"/><rect width="2" height="2" x="7" y="7"/><rect width="2" height="2" x="10" y="4"/><rect width="2" height="2" x="4" y="4"/><rect width="2" height="2" x="7" y="4"/><rect width="2" height="2" x="10" y="1"/></svg>